<svg xmlns="http://www.w3.org/2000/svg" width="146.783" height="163.473" viewBox="0 0 146.783 163.473">
  <g id="Grupo_187" data-name="Grupo 187" transform="translate(-95 -157)">
    <g id="Grupo_186" data-name="Grupo 186">
      <g id="Grupo_184" data-name="Grupo 184">
        <g id="Grupo_71" data-name="Grupo 71" transform="translate(-231.618 125.741)">
          <g id="Grupo_58" data-name="Grupo 58">
            <g id="Grupo_57" data-name="Grupo 57">
              <path id="Trazado_140" data-name="Trazado 140" d="M366.862,135.127a9.365,9.365,0,0,0-8.028,11.31c.81,3.766,6.72,2.716,5.9-1.074a3.379,3.379,0,0,1,3.2-4.331c3.837-.439,2.755-6.342-1.074-5.9Z" fill="#b46e23"/>
            </g>
            <path id="Trazado_141" data-name="Trazado 141" d="M364.738,145.363a3.379,3.379,0,0,1,3.2-4.331s-6.56-1.695-8.106,7.086C361.728,149.672,365.392,148.4,364.738,145.363Z" fill="#934f21"/>
          </g>
          <g id="Grupo_60" data-name="Grupo 60">
            <path id="Trazado_142" data-name="Trazado 142" d="M397.567,146.352s-40.445-5.165-47.876-6.487c.393,3.931-3.77,17.029-8.872,21.334,0,0,29.448,11.126,41.375,5.785S397.056,150.148,397.567,146.352Z" fill="#dfdbed"/>
            <path id="Trazado_143" data-name="Trazado 143" d="M349.691,139.865c10.778,5.151,18.745,10.609,22.09,16.57a62.223,62.223,0,0,0,25.786-10.083Z" fill="#f3f1f8"/>
            <g id="Grupo_59" data-name="Grupo 59">
              <path id="Trazado_144" data-name="Trazado 144" d="M360.548,142.1q-1.832-.237-3.353-.444l.932,2.144c1.01.135,2.108.278,3.273.427Z" fill="#c64f5b"/>
              <path id="Trazado_145" data-name="Trazado 145" d="M351.629,163.833l-1.025-2.558c-1.359-.536-2.489-1.006-3.34-1.368l1.048,2.614C349.271,162.916,350.387,163.361,351.629,163.833Z" fill="#c64f5b"/>
              <path id="Trazado_146" data-name="Trazado 146" d="M349.46,154.389c.5-1.093.987-2.229,1.445-3.364l-1.084-2.7c-.426,1.141-.9,2.323-1.4,3.486Z" fill="#47629d"/>
              <path id="Trazado_147" data-name="Trazado 147" d="M348.584,156.233l-1.007-2.514c-.515,1.118-1.037,2.181-1.544,3.116l.944,2.355C347.495,158.339,348.038,157.335,348.584,156.233Z" fill="#c64f5b"/>
              <path id="Trazado_148" data-name="Trazado 148" d="M353.785,143.185c.722.11,1.6.236,2.605.375l-.935-2.15c-1.077-.154-1.941-.286-2.538-.391Z" fill="#47629d"/>
              <path id="Trazado_149" data-name="Trazado 149" d="M396.167,149.967c.246-.871.448-1.693.6-2.432l.224-1.073-1.089-.125-1.25-.144Z" fill="#47629d"/>
              <path id="Trazado_150" data-name="Trazado 150" d="M392.995,153.047l1.034,2.581a34.258,34.258,0,0,0,1.423-3.416l-1.169-2.916A33.607,33.607,0,0,1,392.995,153.047Z" fill="#c64f5b"/>
              <path id="Trazado_151" data-name="Trazado 151" d="M366.247,166.252c-1.193-.268-2.39-.569-3.579-.9l.926,2.311c.42.106.841.211,1.262.31.668-.11,1.337-.21,2.005-.311Z" fill="#47629d"/>
              <path id="Trazado_152" data-name="Trazado 152" d="M351.7,148.979c.5-1.35.938-2.638,1.277-3.78l-1.291-3.221a24.681,24.681,0,0,1-1.107,4.2Z" fill="#c64f5b"/>
              <path id="Trazado_153" data-name="Trazado 153" d="M345.073,158.471c-.238.373-.471.719-.689,1l-.776,1,1.148.526c.142.065.711.324,1.613.713Z" fill="#47629d"/>
              <path id="Trazado_154" data-name="Trazado 154" d="M392.962,146l-2.928-.339.846,2.112,2.928.339Z" fill="#c64f5b"/>
              <path id="Trazado_155" data-name="Trazado 155" d="M392.142,154.95a28.488,28.488,0,0,1-1.431,2.573,17.766,17.766,0,0,1,2.092-.922Z" fill="#47629d"/>
              <path id="Trazado_156" data-name="Trazado 156" d="M388.34,145.46c-5.887-.687-14.232-1.672-21.449-2.565l.85,2.122c7.422.914,15.8,1.9,21.445,2.556Z" fill="#c64f5b"/>
              <path id="Trazado_157" data-name="Trazado 157" d="M360.844,164.835c-1.088-.323-2.155-.659-3.192-1l.972,2.426c1.034.323,2.092.637,3.164.932Z" fill="#c64f5b"/>
              <path id="Trazado_158" data-name="Trazado 158" d="M365.191,142.684c-1.012-.126-2-.25-2.94-.37l.851,2.125c.95.12,1.932.243,2.94.368Z" fill="#47629d"/>
              <path id="Trazado_159" data-name="Trazado 159" d="M355.782,163.2c-1.155-.4-2.25-.8-3.268-1.187l1.013,2.527c1.027.373,2.115.751,3.242,1.124Z" fill="#47629d"/>
              <path id="Trazado_160" data-name="Trazado 160" d="M370.547,167.05c-.821-.115-1.658-.261-2.5-.423l.35.806q1.089-.159,2.178-.315Z" fill="#47629d"/>
            </g>
            <path id="Trazado_161" data-name="Trazado 161" d="M340.819,161.2s25.005,7.517,31.164,5.038,3.613-9.415,3.613-9.415,16.18,6.3,21.971-10.47c0,0,.7,10.456-11.877,18.738S353.751,165.486,340.819,161.2Z" fill="#9d92b6"/>
          </g>
          <path id="Trazado_162" data-name="Trazado 162" d="M436.331,96.3c7.656-9.09,31.01-13.4,32.1-11.069s-9.549,7.843-9.549,7.843a50.177,50.177,0,0,1,11.059,1.565,1.978,1.978,0,0,1,1.421.883c.441.976-.767,1.857-1.773,2.223a41.734,41.734,0,0,1-8.039,2.041,40.08,40.08,0,0,1,9.018,3.873c1.594.932,3.342,2.57,2.7,4.3-.516,1.39-2.251,1.811-3.727,1.945-10.551.951-25.441-6.4-33.206-13.6" fill="#331000"/>
          <path id="Trazado_163" data-name="Trazado 163" d="M376.269,113.4a55.919,55.919,0,0,1-18.931,23.62,8,8,0,0,1-3.656,1.706,3.029,3.029,0,0,1-3.271-1.849,21.4,21.4,0,0,1-.351-5.006s-10.135,4.3-15.589,5.172c-4.863.775-6.925-1.086-7.533-2.389s-.707-4.079,3.012-7.306c4.172-3.619,13.983-8.617,13.983-8.617a21.391,21.391,0,0,1-3.61-3.487,3.029,3.029,0,0,1,.687-3.694,8.012,8.012,0,0,1,3.656-1.705,55.935,55.935,0,0,1,30.263.681" fill="#331000"/>
          <path id="Trazado_164" data-name="Trazado 164" d="M436.255,105.92c.055-9.947,5.443-13.709,5.443-13.709L372.923,67.179s1.7,6.335-4.643,14c-10.6,12.815-10.672,38.053,20.409,49.366l.2.073C419.97,141.93,436.175,120.616,436.255,105.92Z" fill="#c1b3aa"/>
          <path id="Trazado_165" data-name="Trazado 165" d="M410.94,32.406a3.014,3.014,0,0,0-2.383-1.125,2.126,2.126,0,0,0-1.569,1.979,6.213,6.213,0,0,0,.554,2.638l1.1,2.986a78.381,78.381,0,0,0-6.313-5.828c-1.03-.851-2.868-1.528-3.435-.317a2.118,2.118,0,0,0,.078,1.534,16.274,16.274,0,0,0,2.209,4.369,13.831,13.831,0,0,0-8.56-3.724,1.883,1.883,0,0,0-1.079.161c-.886.521-.493,1.884.081,2.737,2.875,4.276,7.519,7.022,12.225,9.122a73.243,73.243,0,0,0,23.93,6.109C424.069,50,417.041,38.229,410.94,32.406Z" fill="#331000"/>
          <path id="Trazado_166" data-name="Trazado 166" d="M461.836,61.565a2.394,2.394,0,0,1,2.023.532,1.688,1.688,0,0,1-.056,2,4.933,4.933,0,0,1-1.682,1.321l-2.192,1.254a62.18,62.18,0,0,1,6.809-.323c1.061.008,2.523.534,2.25,1.559a1.68,1.68,0,0,1-.829.893,12.926,12.926,0,0,1-3.572,1.529,10.977,10.977,0,0,1,7.1,2.1,1.49,1.49,0,0,1,.574.649c.272.768-.662,1.4-1.446,1.622-3.928,1.132-8.152.433-12.083-.69a58.109,58.109,0,0,1-17.661-8.493C444.882,65.566,455.158,61.993,461.836,61.565Z" fill="#331000"/>
          <path id="Trazado_167" data-name="Trazado 167" d="M442,111.682c3.485-11.562,12.5-39.95,12.5-39.95S440.422,55.8,418.76,47.885c-21.68-7.863-42.707-4.7-42.707-4.7s-10.689,25.983-16.1,38.64c-4.825,11.293-12.059,40.987,26.315,54.954l.248.09C424.893,150.831,438.458,123.44,442,111.682Z" fill="#582b18"/>
          <path id="Trazado_168" data-name="Trazado 168" d="M382.692,77.71c-.032-17.621-22.451-44.776-25.908-43.164s3.371,18.009,3.371,18.009A74.4,74.4,0,0,0,346.1,43.792a2.931,2.931,0,0,0-2.456-.35c-1.431.687-.9,2.84-.1,4.214a61.833,61.833,0,0,0,7.186,9.98,59.427,59.427,0,0,0-13.935-4.195c-2.7-.462-6.246-.266-7.165,2.313-.738,2.07.83,4.2,2.38,5.761C343.086,72.652,367,78.5,382.692,77.71" fill="#331000"/>
          <g id="Grupo_64" data-name="Grupo 64">
            <g id="Grupo_63" data-name="Grupo 63">
              <g id="Grupo_61" data-name="Grupo 61">
                <path id="Trazado_169" data-name="Trazado 169" d="M393.208,152.527c.566-3.154.106-6.484-2.171-8.883-2.32-2.444-5.59-3.137-8.807-3.491-.044-.123.22-.308.932-.989a14.064,14.064,0,0,1,3.358-2.3c3.427-1.768.9-7.212-2.536-5.438-3.384,1.745-8.3,4.984-8,9.376a5.356,5.356,0,0,0,2.037,3.671,4.09,4.09,0,0,0,.585.653c1.693,1.492,1.615,3.748.69,5.614-.721,1.454.391,3.335,1.793,3.845a2.759,2.759,0,0,0,2.025-.023,3.335,3.335,0,0,0,5.052.251c.044-.048.082-.1.125-.149A3.269,3.269,0,0,0,393.208,152.527Z" fill="#b46e23"/>
                <path id="Trazado_170" data-name="Trazado 170" d="M382.444,146.039c-2.523-4.03-6.1-4.447-6.38-4.814a5.535,5.535,0,0,0,1.955,3.248,4.09,4.09,0,0,0,.585.653c1.693,1.492,1.615,3.748.69,5.614-.721,1.454.391,3.335,1.793,3.845C381.244,154.642,384.708,149.656,382.444,146.039Z" fill="#934f21"/>
                <path id="Trazado_171" data-name="Trazado 171" d="M385.721,155.84c4.079-6.981-.884-10.475-.884-10.475,3.079,4.632-1.725,9.2-1.725,9.2A3.562,3.562,0,0,0,385.721,155.84Z" fill="#934f21"/>
                <path id="Trazado_172" data-name="Trazado 172" d="M391.344,154.862c2.377-7.462-2.505-8.987-2.505-8.987,3.272,4.229.148,8.044-.54,8.795A3.428,3.428,0,0,0,391.344,154.862Z" fill="#934f21"/>
              </g>
              <g id="Grupo_62" data-name="Grupo 62">
                <path id="Trazado_173" data-name="Trazado 173" d="M378.551,137.07a9.364,9.364,0,0,0-8.028,11.309c.81,3.766,6.719,2.716,5.9-1.074a3.378,3.378,0,0,1,3.2-4.331c3.837-.439,2.755-6.342-1.074-5.9Z" fill="#b46e23"/>
              </g>
              <path id="Trazado_174" data-name="Trazado 174" d="M376.427,147.3a3.378,3.378,0,0,1,3.2-4.331s-6.56-1.695-8.106,7.086C373.417,151.614,377.081,150.344,376.427,147.3Z" fill="#934f21"/>
            </g>
            <path id="Trazado_175" data-name="Trazado 175" d="M393.981,129.445,390.05,126.1c-1.482.515-8.295,2.813-9.7,3.513a4.054,4.054,0,0,0-2.284,2.094,1.28,1.28,0,0,0,.192,1.263,1.524,1.524,0,0,0,.677.364,5.062,5.062,0,0,0,3.188-.084,7.632,7.632,0,0,0-1.813,2.749c-.222.583-.268,1.422.312,1.651a1.216,1.216,0,0,0,.721-.01,7.778,7.778,0,0,0,2.731-1.242,2.457,2.457,0,0,0,1.318,3.211,3.677,3.677,0,0,0,3.648-.693,7.633,7.633,0,0,0,2.129-3.218C391.512,134.83,393.786,130.353,393.981,129.445Z" fill="#582b18"/>
          </g>
          <g id="Grupo_67" data-name="Grupo 67">
            <g id="Grupo_66" data-name="Grupo 66">
              <g id="Grupo_65" data-name="Grupo 65">
                <path id="Trazado_176" data-name="Trazado 176" d="M381.52,150.585c.566-3.154.105-6.484-2.172-8.883-2.32-2.444-5.589-3.137-8.807-3.491-.044-.123.22-.308.933-.989a14.038,14.038,0,0,1,3.357-2.3c3.428-1.768.9-7.213-2.536-5.438-3.384,1.745-8.3,4.984-8,9.376a5.362,5.362,0,0,0,2.037,3.671,4.091,4.091,0,0,0,.585.653c1.693,1.492,1.615,3.748.69,5.614-.721,1.454.391,3.335,1.793,3.845a2.764,2.764,0,0,0,2.025-.023,3.336,3.336,0,0,0,5.053.251c.044-.048.081-.1.124-.149A3.27,3.27,0,0,0,381.52,150.585Z" fill="#b46e23"/>
                <path id="Trazado_177" data-name="Trazado 177" d="M370.755,144.1c-2.523-4.031-6.1-4.447-6.38-4.814a5.54,5.54,0,0,0,1.955,3.248,4.091,4.091,0,0,0,.585.653c1.693,1.492,1.615,3.748.69,5.614-.721,1.454.391,3.335,1.793,3.845C369.556,152.7,373.019,147.714,370.755,144.1Z" fill="#934f21"/>
                <path id="Trazado_178" data-name="Trazado 178" d="M374.032,153.9c4.08-6.981-.884-10.475-.884-10.475,3.079,4.632-1.725,9.2-1.725,9.2A3.562,3.562,0,0,0,374.032,153.9Z" fill="#934f21"/>
                <path id="Trazado_179" data-name="Trazado 179" d="M379.655,152.92c2.378-7.462-2.505-8.987-2.505-8.987,3.272,4.229.148,8.044-.539,8.795A3.426,3.426,0,0,0,379.655,152.92Z" fill="#934f21"/>
              </g>
            </g>
            <path id="Trazado_180" data-name="Trazado 180" d="M382.293,127.5l-3.932-3.348c-1.481.515-8.295,2.813-9.7,3.513a4.054,4.054,0,0,0-2.284,2.094,1.28,1.28,0,0,0,.192,1.263,1.524,1.524,0,0,0,.677.364,5.065,5.065,0,0,0,3.189-.084,7.622,7.622,0,0,0-1.814,2.749c-.222.583-.268,1.421.312,1.651a1.216,1.216,0,0,0,.721-.01,7.77,7.77,0,0,0,2.731-1.242,2.457,2.457,0,0,0,1.318,3.211,3.679,3.679,0,0,0,3.648-.693,7.64,7.64,0,0,0,2.129-3.218C379.823,132.888,382.1,128.411,382.293,127.5Z" fill="#582b18"/>
          </g>
          <path id="Trazado_181" data-name="Trazado 181" d="M440.686,120.122c2.864-10.1,2.084-20.988-1.332-28.944l-40.84-14.864c-7.731,3.9-15.33,11.742-19.625,21.316-1.112,2.4-1.994,5.749-.98,6.744,1.3,1.273,5.03-1.824,5.043-1.783-.06-.1-4.874,7.709-4.669,12.747.054,2.809,1.81,3.85,3.3,3.6s3-1.648,4.505-2.937a24.064,24.064,0,0,0-1.78,5.183,10.216,10.216,0,0,0,.231,5.425,2.67,2.67,0,0,0,3.35,1.852c1.858-.531,3.579-2.339,5.327-4-1.429,3.91-.388,12.351,5.049,14.329s12.784-3.408,14.2-7.322c.27,2.4.426,4.889,1.508,6.49a2.672,2.672,0,0,0,3.757.735,10.228,10.228,0,0,0,3.665-4.008,24.169,24.169,0,0,0,1.967-5.115c.322,1.953.585,3.982,1.564,5.146s2.993,1.483,4.84-.634c3.395-3.728,4.725-12.8,4.617-12.766.036-.024.9,4.746,2.717,4.607C438.518,125.808,440,122.675,440.686,120.122Z" fill="#c1b3aa"/>
          <path id="Trazado_182" data-name="Trazado 182" d="M446.7,104.115a43.655,43.655,0,0,0-.3-17.641L397.666,68.737a43.65,43.65,0,0,0-11.572,13.319c-1.133,1.982-1.928,4.306-1.721,5.774.328,2.394,5.663-2.1,5.688-2.018-.075-.109-5.59,8.008-5.468,12.841-.006,2.006,1.165,2.491,2.314,1.786a17.9,17.9,0,0,0,3.549-3.831,37.338,37.338,0,0,0-2.658,7.38,13.948,13.948,0,0,0-.047,7.06c.664,1.871,1.983,2.3,3.251,1.712a12.47,12.47,0,0,0,3.783-3.738c-1.516,4.218-2.557,10.308-.822,12.852,1.69,2.521,3.9-.184,5.682-2.934-.448,1.137-1.964,10.425,2.69,12.119,4.691,1.707,9.916-6.383,10.28-7.425-.4,3.261-.459,6.773,2.463,5.926,2.965-.834,6.082-6.168,7.632-10.374a12.451,12.451,0,0,0,.5,5.3c.593,1.265,1.879,1.785,3.59.778a13.95,13.95,0,0,0,4.5-5.439,37.26,37.26,0,0,0,2.707-7.361,17.936,17.936,0,0,0,.257,5.216c.427,1.279,1.636,1.659,2.921.119,3.2-3.624,4.192-13.386,4.065-13.351.072-.047,1.27,6.825,3.06,5.2C445.41,108.654,446.3,106.362,446.7,104.115Z" fill="#dfd9d5"/>
          <path id="Trazado_183" data-name="Trazado 183" d="M441.007,63.949c-6.743.885-12.333,14.967-12.333,14.967s6.335-21.385-6.712-27.243-30.975,7.271-24.505,28.018c7.709,7.491,14.921,18.259,16.411,30.8,9.58-9.491,21.9-15.33,32.423-15.514C452.542,77.8,451.6,63.087,441.007,63.949Z" fill="#c1b3aa"/>
          <g id="Grupo_68" data-name="Grupo 68">
            <path id="Trazado_184" data-name="Trazado 184" d="M450.993,84.9c-3.173,8.614-10.031,13.425-14.653,11.082s-6.561-10.572-3.815-18.117C434.862,71.448,443.185,64.628,448,66.5,452.474,68.272,454.166,76.29,450.993,84.9Z" fill="#351100"/>
            <path id="Trazado_185" data-name="Trazado 185" d="M433.911,78.4c-2.5,6.85-1.137,14.071,3.034,16.13s9.84-2.486,12.661-10.151,1.463-14.887-3.034-16.13S436.407,71.547,433.911,78.4Z" fill="#fff"/>
            <path id="Trazado_186" data-name="Trazado 186" d="M434.686,81.105c-2.02,5.538-.952,11.353,2.385,12.988s7.85-1.952,10.078-8.01,1.16-11.875-2.386-12.989S436.706,75.567,434.686,81.105Z"/>
            <path id="Trazado_187" data-name="Trazado 187" d="M436.581,87.594c-.554,1.515-.278,3.081.617,3.5s2.081-.5,2.65-2.053.293-3.119-.617-3.5S437.135,86.079,436.581,87.594Z" fill="#fff"/>
            <path id="Trazado_188" data-name="Trazado 188" d="M436.256,83.285c-.273.748-.126,1.511.328,1.7s1.047-.267,1.324-1.024.13-1.52-.328-1.7S436.53,82.537,436.256,83.285Z" fill="#fff"/>
          </g>
          <g id="Grupo_69" data-name="Grupo 69">
            <path id="Trazado_189" data-name="Trazado 189" d="M424.454,73.769c-3.184,8.61-11.5,12.892-17.681,9.98s-9.529-11.652-6.783-19.2c2.337-6.421,12.325-12.635,18.71-10.2C424.631,56.663,427.638,65.159,424.454,73.769Z" fill="#351100"/>
            <path id="Trazado_190" data-name="Trazado 190" d="M401.827,65.244c-2.5,6.849,0,14.485,5.573,17.054s12.387-1.559,15.217-9.221.336-15.3-5.573-17.054S404.323,58.394,401.827,65.244Z" fill="#fff"/>
            <path id="Trazado_191" data-name="Trazado 191" d="M403.1,68.135c-2.022,5.537-.045,11.683,4.414,13.726s9.885-1.211,12.119-7.268.259-12.2-4.414-13.726S405.124,62.6,403.1,68.135Z"/>
            <path id="Trazado_192" data-name="Trazado 192" d="M406.211,75.065a2.9,2.9,0,0,0,1.157,3.7c1.193.526,2.623-.305,3.193-1.856s.052-3.207-1.157-3.7A2.579,2.579,0,0,0,406.211,75.065Z" fill="#fff"/>
            <path id="Trazado_193" data-name="Trazado 193" d="M405.348,70.56a1.392,1.392,0,0,0,.6,1.8,1.287,1.287,0,0,0,1.6-.925,1.378,1.378,0,0,0-.6-1.8A1.3,1.3,0,0,0,405.348,70.56Z" fill="#fff"/>
          </g>
          <path id="Trazado_194" data-name="Trazado 194" d="M441.543,60.92l-.032.011a12.027,12.027,0,0,0-3.015,1.808,14.881,14.881,0,0,0,1.985-4.34c.339-1.561.047-3.317-1.025-3.954l-.018-.007c-1.232-.2-2.584.956-3.327,2.37a14.883,14.883,0,0,0-1.27,4.6,11.979,11.979,0,0,0-1.147-3.323l-.017-.029c-.977-1.6-3.3-.584-3.776,1.583a23.651,23.651,0,0,0-.1,7.428q.357,3.476.715,6.95l3.183,1.158q2.508-2.432,5.015-4.864a23.645,23.645,0,0,0,4.7-5.752C444.442,62.59,443.32,60.321,441.543,60.92Z" fill="#331000"/>
          <g id="Grupo_70" data-name="Grupo 70">
            <path id="Trazado_195" data-name="Trazado 195" d="M427.408,78.374s-.71,3.989,1.9,4.94,4.026-2.935,4.026-2.935Z" fill="#8f4321"/>
            <path id="Trazado_196" data-name="Trazado 196" d="M433.983,72.179c-1.739-.648-5.234,2.015-6.858,6.757l9.253,3.172S435.723,72.827,433.983,72.179Z" fill="#b46e23"/>
          </g>
        </g>
      </g>
      <g id="Grupo_185" data-name="Grupo 185">
        <path id="Trazado_394" data-name="Trazado 394" d="M1.182,21.434V19.5a3.755,3.755,0,0,0,.8.527,6.448,6.448,0,0,0,.977.4,7.774,7.774,0,0,0,1.03.249,5.744,5.744,0,0,0,.957.088A3.749,3.749,0,0,0,7.2,20.2a2.106,2.106,0,0,0,.5-2.6,2.805,2.805,0,0,0-.688-.767,6.832,6.832,0,0,0-1.04-.664q-.6-.317-1.294-.669-.732-.371-1.367-.752a5.924,5.924,0,0,1-1.1-.84,3.5,3.5,0,0,1-.737-1.04A3.219,3.219,0,0,1,1.2,11.5a3.2,3.2,0,0,1,.42-1.665,3.6,3.6,0,0,1,1.1-1.167,5,5,0,0,1,1.558-.684,7.132,7.132,0,0,1,1.782-.225,6.83,6.83,0,0,1,3.018.5v1.846A5.47,5.47,0,0,0,5.9,9.246a5.236,5.236,0,0,0-1.074.112,3.034,3.034,0,0,0-.957.366,2.12,2.12,0,0,0-.684.654,1.737,1.737,0,0,0-.264.977,2.011,2.011,0,0,0,.2.928A2.274,2.274,0,0,0,3.711,13a5.885,5.885,0,0,0,.952.625q.562.3,1.294.664.752.371,1.426.781a6.517,6.517,0,0,1,1.182.908,4.036,4.036,0,0,1,.806,1.1,3.1,3.1,0,0,1,.3,1.387,3.517,3.517,0,0,1-.405,1.753,3.326,3.326,0,0,1-1.094,1.167,4.777,4.777,0,0,1-1.587.649,8.691,8.691,0,0,1-1.895.2,7.72,7.72,0,0,1-.82-.054q-.488-.054-1-.156a8.128,8.128,0,0,1-.962-.254A2.993,2.993,0,0,1,1.182,21.434ZM22.988,22H21.348V15.613H14.1V22H12.461V8H14.1v6.143h7.246V8h1.641ZM37.5,22H35.684L34.2,18.074H28.262L26.865,22H25.039L30.41,8h1.7Zm-3.838-5.4-2.2-5.967A5.713,5.713,0,0,1,31.25,9.7h-.039a5.231,5.231,0,0,1-.225.938L28.809,16.6ZM49.6,22H47.646L45.3,18.074a8.55,8.55,0,0,0-.625-.933,3.563,3.563,0,0,0-.62-.63,2.148,2.148,0,0,0-.684-.356,2.811,2.811,0,0,0-.825-.112H41.2V22H39.561V8h4.18a5.957,5.957,0,0,1,1.694.229,3.791,3.791,0,0,1,1.348.7,3.245,3.245,0,0,1,.894,1.167A3.87,3.87,0,0,1,48,11.727a3.939,3.939,0,0,1-.22,1.343,3.507,3.507,0,0,1-.625,1.089,3.789,3.789,0,0,1-.977.815,4.986,4.986,0,0,1-1.284.522v.039a2.954,2.954,0,0,1,.61.356,3.359,3.359,0,0,1,.493.474,6.274,6.274,0,0,1,.464.62q.229.347.513.806ZM41.2,9.48v5.078h2.227a3.377,3.377,0,0,0,1.138-.186,2.634,2.634,0,0,0,.9-.532,2.414,2.414,0,0,0,.6-.85,2.844,2.844,0,0,0,.215-1.128,2.2,2.2,0,0,0-.728-1.753,3.125,3.125,0,0,0-2.1-.63ZM58.945,22H51.523V8h7.109V9.48H53.164v4.658h5.059v1.475H53.164v4.9h5.781Z" transform="translate(138.818 298.238)" fill="#3415d6" opacity="0.8"/>
      </g>
    </g>
  </g>
</svg>
